<svg xmlns="http://www.w3.org/2000/svg" width="141.128" height="24.08" viewBox="0 0 141.128 24.08">
  <g id="_4" data-name="4" transform="translate(-221 -1525)">
    <path id="star" d="M25.062,9.591a1.333,1.333,0,0,0-1.15-.918L16.66,8.014,13.792,1.3a1.335,1.335,0,0,0-2.456,0L8.468,8.014l-7.254.659A1.337,1.337,0,0,0,.456,11.01l5.482,4.808L4.322,22.938a1.333,1.333,0,0,0,1.986,1.443l6.256-3.739,6.254,3.739A1.335,1.335,0,0,0,20.8,22.938l-1.617-7.121,5.482-4.807a1.336,1.336,0,0,0,.392-1.42Zm0,0" transform="translate(221 1524.509)" fill="#ffc107"/>
    <path id="star-2" data-name="star" d="M25.062,9.591a1.333,1.333,0,0,0-1.15-.918L16.66,8.014,13.792,1.3a1.335,1.335,0,0,0-2.456,0L8.468,8.014l-7.254.659A1.337,1.337,0,0,0,.456,11.01l5.482,4.808L4.322,22.938a1.333,1.333,0,0,0,1.986,1.443l6.256-3.739,6.254,3.739A1.335,1.335,0,0,0,20.8,22.938l-1.617-7.121,5.482-4.807a1.336,1.336,0,0,0,.392-1.42Zm0,0" transform="translate(250 1524.509)" fill="#ffc107"/>
    <path id="star-3" data-name="star" d="M25.062,9.591a1.333,1.333,0,0,0-1.15-.918L16.66,8.014,13.792,1.3a1.335,1.335,0,0,0-2.456,0L8.468,8.014l-7.254.659A1.337,1.337,0,0,0,.456,11.01l5.482,4.808L4.322,22.938a1.333,1.333,0,0,0,1.986,1.443l6.256-3.739,6.254,3.739A1.335,1.335,0,0,0,20.8,22.938l-1.617-7.121,5.482-4.807a1.336,1.336,0,0,0,.392-1.42Zm0,0" transform="translate(279 1524.509)" fill="#ffc107"/>
    <path id="star-4" data-name="star" d="M25.062,9.591a1.333,1.333,0,0,0-1.15-.918L16.66,8.014,13.792,1.3a1.335,1.335,0,0,0-2.456,0L8.468,8.014l-7.254.659A1.337,1.337,0,0,0,.456,11.01l5.482,4.808L4.322,22.938a1.333,1.333,0,0,0,1.986,1.443l6.256-3.739,6.254,3.739A1.335,1.335,0,0,0,20.8,22.938l-1.617-7.121,5.482-4.807a1.336,1.336,0,0,0,.392-1.42Zm0,0" transform="translate(308 1524.509)" fill="#ffc107"/>
    <path id="star-5" data-name="star" d="M25.062,9.591a1.333,1.333,0,0,0-1.15-.918L16.66,8.014,13.792,1.3a1.335,1.335,0,0,0-2.456,0L8.468,8.014l-7.254.659A1.337,1.337,0,0,0,.456,11.01l5.482,4.808L4.322,22.938a1.333,1.333,0,0,0,1.986,1.443l6.256-3.739,6.254,3.739A1.335,1.335,0,0,0,20.8,22.938l-1.617-7.121,5.482-4.807a1.336,1.336,0,0,0,.392-1.42Zm0,0" transform="translate(337 1524.509)" fill="#ffc107" opacity="0.37"/>
  </g>
</svg>
