<svg xmlns="http://www.w3.org/2000/svg" width="160" height="129" viewBox="0 0 160 129">
  <g id="Group_76" data-name="Group 76" transform="translate(-270 -2594)">
    <rect id="Rectangle_15" data-name="Rectangle 15" width="160" height="129" rx="20" transform="translate(270 2594)" fill="#fff" opacity="0.32"/>
    <g id="Group_75" data-name="Group 75" transform="translate(-0.902 -2.324)">
      <g id="diet" transform="translate(297.902 2613.324)">
        <rect id="Rectangle_9" data-name="Rectangle 9" width="10.724" height="7.156" transform="translate(12.594 9.545)" fill="#48c1e1"/>
        <path id="Path_43" data-name="Path 43" d="M65.271,36.2A1.07,1.07,0,0,1,64.2,37.263H51.19A1.07,1.07,0,0,1,50.123,36.2v-7.69a1.07,1.07,0,0,1,1.067-1.067H64.2a1.07,1.07,0,0,1,1.067,1.067V36.2Z" transform="translate(-39.741 -27.439)" fill="#046699"/>
        <g id="Group_37" data-name="Group 37" transform="translate(10.382 0)" opacity="0.1">
          <path id="Path_44" data-name="Path 44" d="M54.573,36.2v-7.69a1.07,1.07,0,0,1,1.067-1.067H51.19a1.07,1.07,0,0,0-1.067,1.067V36.2a1.07,1.07,0,0,0,1.067,1.067h4.45A1.07,1.07,0,0,1,54.573,36.2Z" transform="translate(-50.123 -27.439)"/>
        </g>
        <path id="Path_45" data-name="Path 45" d="M29.115,157.668a.207.207,0,0,0,.1-.293.934.934,0,0,1-.134-.458c0-1.142,2.533-2.364,6.3-2.364a14.371,14.371,0,0,1,3.419.39.207.207,0,0,0,.251-.251,38.243,38.243,0,0,1-1.123-8.085c0-.032,0-.064,0-.1q-.018-.591-.018-1.185a.866.866,0,0,1,.864-.866h1.871a.207.207,0,0,0,.206-.23,6.417,6.417,0,0,1-.045-.722,6.62,6.62,0,0,1,4.644-6.342.207.207,0,0,0,.124-.287,6.25,6.25,0,0,1,3.026-8.4.207.207,0,0,0,.108-.258,6.249,6.249,0,0,1,1.862-6.887v-8.9a5.964,5.964,0,0,0-5.94-5.954H30.97a5.965,5.965,0,0,0-5.94,5.954v47.7A15.478,15.478,0,0,1,29.115,157.668Z" transform="translate(-19.846 -90.115)" fill="#a2dff9"/>
        <path id="Path_46" data-name="Path 46" d="M45.452,178.673a.207.207,0,0,0,.124-.287,6.25,6.25,0,0,1,3.026-8.4.207.207,0,0,0,.108-.258,6.249,6.249,0,0,1,1.862-6.887v-4H25.03v22.039H42.246A6.621,6.621,0,0,1,45.452,178.673Z" transform="translate(-19.846 -131.623)" fill="#046699"/>
        <path id="Path_47" data-name="Path 47" d="M31.445,155.084V112.441a5.964,5.964,0,0,1,5.94-5.954H30.97a5.965,5.965,0,0,0-5.94,5.954v47.7a15.483,15.483,0,0,1,4.085-2.471.207.207,0,0,0,.1-.293.934.934,0,0,1-.134-.458C29.083,156.244,29.959,155.546,31.445,155.084Z" transform="translate(-19.846 -90.114)" opacity="0.1"/>
        <path id="Path_48" data-name="Path 48" d="M238.69,142.632a6.32,6.32,0,0,1,.091,1.065.207.207,0,0,0,.189.206,6.256,6.256,0,0,1,5.517,4.7.207.207,0,0,0,.142.148.2.2,0,0,0,.059.008.207.207,0,0,0,.141-.056,6.557,6.557,0,0,1,3.888-1.751.207.207,0,0,0,.187-.2,11.373,11.373,0,0,1,3.326-7.691c.043-.043.088-.083.131-.125a14.269,14.269,0,0,0-4.005-7.895,1.117,1.117,0,0,0-1.581,0l-9.092,9.113A6.26,6.26,0,0,1,238.69,142.632Z" transform="translate(-188.454 -109.324)" fill="#ef5050"/>
        <g id="Group_38" data-name="Group 38" transform="translate(54.027 25.771)">
          <path id="Path_49" data-name="Path 49" d="M262.847,202.928a.207.207,0,0,0,.142.148.2.2,0,0,0,.059.008.207.207,0,0,0,.141-.056,6.623,6.623,0,0,1,1.756-1.18,1.547,1.547,0,0,0-.388-.65l-1.508-1.512a1.553,1.553,0,0,0-2.2,0l-.012.014A6.241,6.241,0,0,1,262.847,202.928Z" transform="translate(-260.841 -189.42)" fill="#c0272d"/>
          <path id="Path_50" data-name="Path 50" d="M272.015,182.986h-2.133a1.553,1.553,0,0,1,0-3.107h2.133a1.553,1.553,0,0,1,0,3.107Z" transform="translate(-266.778 -174.076)" fill="#c0272d"/>
          <path id="Path_51" data-name="Path 51" d="M268.43,156.48a1.553,1.553,0,0,1-1.1-2.651l1.509-1.512a1.554,1.554,0,0,1,2.2,2.195l-1.509,1.512A1.549,1.549,0,0,1,268.43,156.48Z" transform="translate(-265.626 -151.862)" fill="#c0272d"/>
        </g>
        <path id="Path_52" data-name="Path 52" d="M306.9,154.919a.368.368,0,0,0-.207-.207,11.587,11.587,0,0,0-15.86,10.617c.215-.021.433-.033.653-.033a6.649,6.649,0,0,1,6.51,5.37,11.606,11.606,0,0,0,8.9-15.747Z" transform="translate(-230.595 -127.698)" fill="#89c947"/>
        <path id="Path_53" data-name="Path 53" d="M312.478,183.134a1.553,1.553,0,0,0-2.2,0l-5.374,5.386a6.654,6.654,0,0,1,2.629,1.763l4.944-4.955A1.553,1.553,0,0,0,312.478,183.134Z" transform="translate(-241.754 -150.526)" fill="#d5e962"/>
        <g id="Group_39" data-name="Group 39" transform="translate(20.755 35.106)">
          <path id="Path_54" data-name="Path 54" d="M358.318,206.835a5.672,5.672,0,0,1,.082.959.207.207,0,0,0,.189.206,5.587,5.587,0,0,1,2.382.774.207.207,0,0,0,.262-.042c.177-.2.328-.366.477-.516a10.375,10.375,0,0,1,4.411-2.635,6.843,6.843,0,1,0-13.251-3.412A5.617,5.617,0,0,1,358.318,206.835Z" transform="translate(-300.537 -196.929)" fill="#ffc502"/>
          <path id="Path_55" data-name="Path 55" d="M111.1,260.753a10.675,10.675,0,0,1-1.3-3.965,6.24,6.24,0,0,1-4.61-3.438,6.816,6.816,0,0,0-4.933,7.4H111.1Z" transform="translate(-100.206 -241.664)" fill="#ffc502"/>
        </g>
        <path id="Path_56" data-name="Path 56" d="M394.546,243.338a5.588,5.588,0,0,1-.459,3.371h8.791a10.671,10.671,0,0,0,1.228-10.126.34.34,0,0,0-.19-.19,10.613,10.613,0,0,0-11.452,2.368c-.22.22-.425.45-.622.685A5.63,5.63,0,0,1,394.546,243.338Z" transform="translate(-310.682 -192.514)" fill="#89c947"/>
        <path id="Path_57" data-name="Path 57" d="M402.678,267.189H404.6l3.064-3.071a1.553,1.553,0,0,0-2.2-2.194l-2.275,2.28A5.581,5.581,0,0,1,402.678,267.189Z" transform="translate(-319.273 -212.994)" fill="#d5e962"/>
        <path id="Path_58" data-name="Path 58" d="M151.606,173.683a6.464,6.464,0,0,0-5.737-5.027,6.476,6.476,0,0,0-11.878-3.554,6.477,6.477,0,0,0-9.986,7.36,6.467,6.467,0,0,0,1.672,12.26,10.439,10.439,0,0,1,.637-5.352.132.132,0,0,1,.03-.045.136.136,0,0,1,.045-.029,10.4,10.4,0,0,1,11.228,2.322c.143.143.279.291.412.441a14.273,14.273,0,0,1-.167-2.178.912.912,0,0,1,.91-.913h10.846c-.009-.144-.016-.289-.016-.436A6.844,6.844,0,0,1,151.606,173.683Z" transform="translate(-95.334 -134.283)" fill="#368c0e"/>
        <g id="Group_40" data-name="Group 40" transform="translate(32.032 33.578)">
          <path id="Path_59" data-name="Path 59" d="M156.206,195.98h-.027a1.553,1.553,0,0,1-1.527-1.58,4.941,4.941,0,0,1,4.934-4.848h.079a4.945,4.945,0,0,1,3.561,1.6,1.554,1.554,0,0,1-2.294,2.1,1.8,1.8,0,0,0-1.315-.592,1.828,1.828,0,0,0-1.858,1.794A1.553,1.553,0,0,1,156.206,195.98Z" transform="translate(-154.652 -189.552)" fill="#89c947"/>
          <path id="Path_60" data-name="Path 60" d="M197.612,214.175a1.555,1.555,0,0,1-1.456-2.094,4.524,4.524,0,0,1,8.406-.2A1.553,1.553,0,1,1,201.7,213.1a1.4,1.4,0,0,0-.81-.772,1.422,1.422,0,0,0-1.824.838A1.554,1.554,0,0,1,197.612,214.175Z" transform="translate(-187.482 -205.074)" fill="#89c947"/>
        </g>
        <path id="Path_61" data-name="Path 61" d="M324.79,225.74h-.057c0,.014,0,.029,0,.044h2.081a1.119,1.119,0,0,1,1.118,1.12,14.264,14.264,0,0,1-2.7,8.364H340.9a5.83,5.83,0,0,0-4.8-8.225,5.849,5.849,0,0,0-10.729-3.21,5.863,5.863,0,0,0-.888-.545,6.64,6.64,0,0,1,.318,2.033C324.8,225.457,324.8,225.6,324.79,225.74Z" transform="translate(-257.277 -181.072)" fill="#368c0e"/>
        <path id="Path_62" data-name="Path 62" d="M274.626,215.256c.01-.144.016-.289.016-.436a6.842,6.842,0,1,0-13.683,0c0,.147.007.292.016.436Z" transform="translate(-206.908 -170.572)" fill="#f7931e"/>
        <path id="Path_63" data-name="Path 63" d="M157.4,243.306a10.613,10.613,0,0,0-11.452-2.368.348.348,0,0,0-.115.076.339.339,0,0,0-.075.115,10.673,10.673,0,0,0,.629,9.184h14.1a14.294,14.294,0,0,1-2.737-6.637Q157.583,243.488,157.4,243.306Z" transform="translate(-114.974 -196.118)" fill="#89c947"/>
        <path id="Path_64" data-name="Path 64" d="M173.331,270.792h4.389l-4.314-4.324a1.553,1.553,0,0,0-2.2,2.194Z" transform="translate(-135.385 -216.598)" fill="#d5e962"/>
        <path id="Path_65" data-name="Path 65" d="M230.055,251.892a14.276,14.276,0,0,0,2.873-8.6,1.119,1.119,0,0,0-1.118-1.12H205.437a1.118,1.118,0,0,0-1.117,1.12,14.275,14.275,0,0,0,2.873,8.6Z" transform="translate(-162 -197.697)" fill="#ef5050"/>
        <g id="Group_41" data-name="Group 41" transform="translate(45.827 46.899)">
          <path id="Path_66" data-name="Path 66" d="M269.257,279.031v-1.075a1.553,1.553,0,0,0-3.107,0v1.075Z" transform="translate(-256.85 -271.735)" fill="#c0272d"/>
          <path id="Path_67" data-name="Path 67" d="M288.464,273.593h2.416a1.554,1.554,0,0,0-.1-2.081L289.269,270a1.553,1.553,0,1,0-2.2,2.194Z" transform="translate(-273.077 -266.297)" fill="#c0272d"/>
          <path id="Path_68" data-name="Path 68" d="M239.987,273.594l1.394-1.4a1.553,1.553,0,0,0-2.2-2.195l-1.508,1.512a1.553,1.553,0,0,0-.1,2.08Z" transform="translate(-233.912 -266.298)" fill="#c0272d"/>
          <path id="Path_69" data-name="Path 69" d="M224.936,256.972H222.8a1.553,1.553,0,1,1,0-3.107h2.133a1.553,1.553,0,0,1,0,3.107Z" transform="translate(-221.25 -253.865)" fill="#c0272d"/>
          <path id="Path_70" data-name="Path 70" d="M303.894,256.972H301.76a1.553,1.553,0,1,1,0-3.107h2.133a1.553,1.553,0,1,1,0,3.107Z" transform="translate(-283.853 -253.865)" fill="#c0272d"/>
        </g>
        <path id="Path_71" data-name="Path 71" d="M87.621,299.578a.206.206,0,0,0,.181-.034.207.207,0,0,0,.082-.165v-2.629a1.346,1.346,0,0,1,2.693,0v2.629a.207.207,0,0,0,.207.207.2.2,0,0,0,.056-.008,13.959,13.959,0,0,1,3.717-.469c3.771,0,6.3,1.222,6.3,2.364a.934.934,0,0,1-.134.459.207.207,0,0,0,.1.293,14.349,14.349,0,0,1,8.929,11.017.207.207,0,0,0,.279.165l32.7-12.423a5.54,5.54,0,0,1,7.42,4.152l.285,1.538a.207.207,0,0,0,.309.141l10.994-6.49a38.519,38.519,0,0,0,1.424-10.442,1.072,1.072,0,0,0-1.071-1.073h-74.8a1.072,1.072,0,0,0-1.071,1.073,38.617,38.617,0,0,0,1.211,9.647C87.495,299.545,87.559,299.56,87.621,299.578Z" transform="translate(-68.362 -234.672)" fill="#e6e9ed"/>
        <path id="Path_72" data-name="Path 72" d="M87.621,299.578a.211.211,0,0,0,.056.008.207.207,0,0,0,.207-.207v-2.629a1.346,1.346,0,0,1,2.693,0v2.629a.207.207,0,0,0,.207.207.2.2,0,0,0,.056-.008,13.481,13.481,0,0,1,3.142-.458,38.681,38.681,0,0,1-1.106-9.238,1.072,1.072,0,0,1,1.071-1.073H87.292a1.072,1.072,0,0,0-1.071,1.073,38.618,38.618,0,0,0,1.211,9.647C87.495,299.545,87.559,299.56,87.621,299.578Z" transform="translate(-68.362 -234.672)" opacity="0.1"/>
        <path id="Path_73" data-name="Path 73" d="M94.805,324.769a7.2,7.2,0,0,1,1.554-.617V321.2a1.553,1.553,0,0,0-3.107,0v2.951A7.181,7.181,0,0,1,94.805,324.769Z" transform="translate(-73.937 -259.124)" fill="#89c947"/>
        <path id="Path_74" data-name="Path 74" d="M36.738,379.458l-5.611,0h0a5.531,5.531,0,0,1-5.445-4.514l-.055-.3A5.51,5.51,0,0,1,29.1,368.5l12.534-4.761a14.489,14.489,0,0,0-9.279-11.47c-.485.815-2.154,1.524-4.327,1.779a.207.207,0,0,0-.105.367,4.564,4.564,0,0,1,1.893,2.541.785.785,0,0,1-.188.621,2,2,0,0,1-1.5.456h0a11.377,11.377,0,0,1-5.059-1.564,12.76,12.76,0,0,1-2.061-1.4.207.207,0,0,0-.268,0,12.731,12.731,0,0,1-2.061,1.4,11.376,11.376,0,0,1-5.059,1.564,2,2,0,0,1-1.5-.456.785.785,0,0,1-.188-.62,4.567,4.567,0,0,1,1.893-2.541.207.207,0,0,0-.105-.367c-2.174-.255-3.843-.965-4.327-1.78A14.313,14.313,0,0,0,0,365.384c0,7.889,6.955,14.283,15.535,14.283h21.54C37.308,379.668,37.128,379.585,36.738,379.458Z" transform="translate(0 -284.986)" fill="#ef5050"/>
        <path id="Path_75" data-name="Path 75" d="M6.721,365.385a13.921,13.921,0,0,1,6.244-11.449c-1.8-.315-3.155-.95-3.582-1.669A14.312,14.312,0,0,0,0,365.385c0,7.889,6.955,14.283,15.535,14.283h6.721C13.677,379.669,6.721,373.274,6.721,365.385Z" transform="translate(0 -284.987)" opacity="0.1"/>
        <path id="Path_76" data-name="Path 76" d="M67.272,340.11c0-1.42-2.915-2.571-6.511-2.571a11.546,11.546,0,0,0-5.327,1.094,11.542,11.542,0,0,0-5.327-1.094c-3.6,0-6.511,1.151-6.511,2.571,0,1.165,1.965,2.149,4.657,2.465-1.647,1.318-2.4,2.7-1.73,3.461.889,1,3.941.527,6.816-1.064a12.981,12.981,0,0,0,2.094-1.425,13.03,13.03,0,0,0,2.095,1.425c2.875,1.592,5.927,2.068,6.816,1.064.671-.758-.083-2.143-1.73-3.461C65.307,342.259,67.272,341.275,67.272,340.11Z" transform="translate(-34.565 -273.309)" fill="#368c0e"/>
        <path id="Path_77" data-name="Path 77" d="M420.094,348.464l-.417-2.25A1.436,1.436,0,0,0,418,345.066l-16.1,2.958,10.28-6.872a1.423,1.423,0,0,0,.451-1.889l-1.163-2.06a1.439,1.439,0,0,0-1.984-.529l-13.373,7.894,2.53,13.658,15.338,2.756a1.435,1.435,0,0,0,1.675-1.2l.347-2.326a1.411,1.411,0,0,0-.007-.469,1.433,1.433,0,0,0-1.091-1.134l-12.065-2.767,16.1-2.958A1.43,1.43,0,0,0,420.094,348.464Z" transform="translate(-314.069 -272.465)" fill="#89c947"/>
        <path id="Path_78" data-name="Path 78" d="M122.42,369.1a5.738,5.738,0,0,0,5.651,4.683l48.461-.019A5.728,5.728,0,0,0,182.178,367l-3.237-17.479a5.747,5.747,0,0,0-7.7-4.308l-45.277,17.2a5.718,5.718,0,0,0-3.6,6.383Z" transform="translate(-96.944 -279.099)" fill="#f7931e"/>
        <g id="Group_42" data-name="Group 42" transform="translate(25.325 65.742)" opacity="0.1">
          <path id="Path_79" data-name="Path 79" d="M122.42,369.1a5.691,5.691,0,0,0,.363,1.19,5.982,5.982,0,0,1,3.1-2.661l47.285-17.963a5.994,5.994,0,0,1,5.99,1l-.211-1.144a5.747,5.747,0,0,0-7.7-4.308l-45.277,17.2a5.718,5.718,0,0,0-3.6,6.383Z" transform="translate(-122.269 -344.842)"/>
        </g>
        <g id="Group_43" data-name="Group 43" transform="translate(35.535 70.908)">
          <path id="Path_80" data-name="Path 80" d="M359.049,444.559a1.553,1.553,0,1,0-3.051.584l1.279,6.684h3.163Z" transform="translate(-317.774 -428.07)" fill="#ffc502"/>
          <path id="Path_81" data-name="Path 81" d="M318.392,453.436a1.553,1.553,0,1,0-3.053.575l.915,4.854h3.161Z" transform="translate(-285.537 -435.105)" fill="#ffc502"/>
          <path id="Path_82" data-name="Path 82" d="M285.119,376.411a1.554,1.554,0,0,0,3.013-.759l-1.479-5.872-2.924,1.111Z" transform="translate(-260.496 -369.78)" fill="#ffc502"/>
          <path id="Path_83" data-name="Path 83" d="M239.613,446.854a1.553,1.553,0,0,0-3.058.551l1.125,6.238h3.157Z" transform="translate(-223.074 -429.876)" fill="#ffc502"/>
          <path id="Path_84" data-name="Path 84" d="M172.429,417.618a1.553,1.553,0,0,0,3.041-.638l-.969-4.615-2.94,1.117Z" transform="translate(-171.561 -403.544)" fill="#ffc502"/>
        </g>
      </g>
    </g>
  </g>
</svg>
