<svg xmlns="http://www.w3.org/2000/svg" xmlns:xlink="http://www.w3.org/1999/xlink" width="160" height="129" viewBox="0 0 160 129">
  <defs>
    <clipPath id="clip-taste">
      <rect width="160" height="129"/>
    </clipPath>
  </defs>
  <g id="taste" clip-path="url(#clip-taste)">
    <g id="quality" transform="translate(25.999 11)">
      <g id="Group_73" data-name="Group 73">
        <g id="Group_71" data-name="Group 71" transform="translate(0 62.917)">
          <g id="Group_67" data-name="Group 67">
            <path id="Path_115" data-name="Path 115" d="M46.107,314.1l-2.839-1.618L28.384,304l-2.839-1.618-5.26-3-5.977,5.962L.309,319.3a1.054,1.054,0,0,0,.3,1.7l4.317,1.988L7.982,324.4l8,3.684,3.684,8,1.406,3.054,1.986,4.312a1.054,1.054,0,0,0,1.7.3L42.82,325.8l8.682-8.629Z" transform="translate(0 -299.38)" fill="#f9d11f"/>
            <path id="Path_116" data-name="Path 116" d="M99.879,314.1l5.395,3.075-5.267,5.235-3.415,3.39a17.252,17.252,0,0,1-3.777-2.6c-.349-.292-.853-.717-1.126-.9-.332-.042-1.019-.044-1.49-.042h-.1a13.064,13.064,0,0,1-6.855-1.435,13.239,13.239,0,0,1-4.735-5.338c-.231-.4-.565-.981-.763-1.246-.3-.151-.933-.38-1.368-.54a13.25,13.25,0,0,1-6.067-3.73,11.134,11.134,0,0,1-2.23-4.638l1.8-1.8,4.174-4.163,5.26,3L82.156,304l14.883,8.484Z" transform="translate(-53.773 -299.38)" fill="#ffa402"/>
            <g id="Group_65" data-name="Group 65" transform="translate(4.93 2.999)">
              <path id="Path_117" data-name="Path 117" d="M46.914,315.268l-20.4,20.4-3.051-1.406L44.074,313.65Z" transform="translate(-23.46 -313.65)" fill="#fdeda5"/>
              <path id="Path_118" data-name="Path 118" d="M120.012,363.338l-8.211,8.211L94.976,388.376l-1.406-3.054,13.936-13.936,9.667-9.667Z" transform="translate(-78.836 -351.618)" fill="#fdeda5"/>
            </g>
            <g id="Group_66" data-name="Group 66" transform="translate(17.216 2.999)">
              <path id="Path_119" data-name="Path 119" d="M90.249,313.65l2.839,1.618-8.553,8.553a10.888,10.888,0,0,1-2.614-1.843Z" transform="translate(-81.92 -313.65)" fill="#fbdf63"/>
              <path id="Path_120" data-name="Path 120" d="M172.386,363.338l-8.211,8.211c-.338-.04-1.009-.042-1.469-.04h-.1a22.646,22.646,0,0,1-2.726-.122l9.667-9.667Z" transform="translate(-143.496 -351.618)" fill="#fbdf63"/>
            </g>
          </g>
          <g id="Group_70" data-name="Group 70" transform="translate(56.099)">
            <path id="Path_121" data-name="Path 121" d="M317.828,321.005l-4.317,1.988-3.052,1.406-8,3.684-3.684,8-1.406,3.054-1.986,4.312a1.054,1.054,0,0,1-1.7.3L275.622,325.8l-3.415-3.394-5.267-5.235,5.395-3.075,2.839-1.618L290.057,304l2.839-1.618,5.26-3,4.174,4.163,1.8,1.8,14,13.961a1.054,1.054,0,0,1-.3,1.7Z" transform="translate(-266.94 -299.38)" fill="#f9d11f"/>
            <path id="Path_122" data-name="Path 122" d="M304.134,305.342a11.114,11.114,0,0,1-2.23,4.636,13.239,13.239,0,0,1-6.067,3.732c-.435.16-1.072.389-1.368.54-.2.265-.532.845-.761,1.246a11.3,11.3,0,0,1-11.693,6.773c-.473,0-1.158,0-1.49.042a14.088,14.088,0,0,0-1.124.9,17.269,17.269,0,0,1-3.779,2.6l-3.415-3.394-5.267-5.235,5.395-3.075,2.839-1.618L290.057,304l2.839-1.618,5.26-3,4.174,4.163Z" transform="translate(-266.94 -299.38)" fill="#ffa402"/>
            <g id="Group_68" data-name="Group 68" transform="translate(5.395 2.999)">
              <path id="Path_123" data-name="Path 123" d="M400.394,334.264l-3.051,1.406-20.4-20.4,2.839-1.618Z" transform="translate(-359.217 -313.65)" fill="#fdeda5"/>
              <path id="Path_124" data-name="Path 124" d="M319.052,385.323l-1.406,3.054L300.821,371.55l-8.211-8.211,2.839-1.618,9.665,9.665Z" transform="translate(-292.61 -351.618)" fill="#fdeda5"/>
            </g>
            <g id="Group_69" data-name="Group 69" transform="translate(5.395 2.999)">
              <path id="Path_125" data-name="Path 125" d="M295.449,361.72l9.665,9.665a23.093,23.093,0,0,1-2.825.124c-.462,0-1.131,0-1.469.04l-8.211-8.211Z" transform="translate(-292.61 -351.618)" fill="#fbdf63"/>
              <path id="Path_126" data-name="Path 126" d="M388.106,321.976a10.834,10.834,0,0,1-2.612,1.845l-8.553-8.553,2.839-1.618Z" transform="translate(-359.217 -313.65)" fill="#fbdf63"/>
            </g>
          </g>
        </g>
        <g id="Group_72" data-name="Group 72" transform="translate(10.932)">
          <path id="Path_127" data-name="Path 127" d="M135.179,56.916c-.836,2.3-3.909,3.547-5.117,5.636-1.221,2.108-.778,5.393-2.335,7.246s-4.878,1.99-6.738,3.552-2.556,4.8-4.666,6.019c-2.089,1.208-5.246.2-7.545,1.038-2.257.822-4.027,3.627-6.448,4.052a3.989,3.989,0,0,1-1.1.032c-1.994-.187-4.123-1.564-6.162-1.643h-.185c-2.474,0-5.09,2.028-7.444,1.616-2.421-.425-4.191-3.23-6.448-4.052-2.3-.836-5.456.17-7.547-1.038-2.108-1.221-2.808-4.462-4.663-6.019s-5.174-1.692-6.738-3.552-1.114-5.138-2.335-7.246c-1.208-2.089-4.281-3.339-5.119-5.636-.822-2.257.721-5.187.3-7.608-.412-2.354-2.871-4.579-2.871-7.051s2.459-4.7,2.871-7.051c.425-2.421-1.118-5.351-.3-7.608.839-2.3,3.911-3.547,5.119-5.636,1.221-2.108.778-5.393,2.335-7.246s4.878-1.99,6.738-3.552,2.556-4.8,4.665-6.019S78.7,4.944,81,4.107C83.254,3.286,85.023.48,87.444.055c2.354-.412,4.97,1.616,7.444,1.616h.185c2.039-.08,4.167-1.456,6.162-1.643a3.989,3.989,0,0,1,1.1.032c2.421.425,4.191,3.23,6.448,4.052,2.3.836,5.456-.17,7.547,1.038,2.108,1.221,2.808,4.462,4.663,6.019s5.174,1.692,6.738,3.552,1.114,5.138,2.335,7.246c1.208,2.089,4.281,3.339,5.117,5.636.824,2.259-.719,5.187-.294,7.608.412,2.354,2.871,4.579,2.871,7.051s-2.459,4.7-2.871,7.051C134.461,51.729,136,54.659,135.179,56.916Z" transform="translate(-52.02)" fill="#ed2061"/>
          <path id="Path_128" data-name="Path 128" d="M320.145,56.917c-.836,2.3-3.909,3.547-5.117,5.636-1.221,2.108-.778,5.393-2.335,7.246s-4.878,1.99-6.738,3.552-2.556,4.8-4.665,6.019c-2.089,1.208-5.246.2-7.545,1.038-2.257.822-4.027,3.627-6.448,4.052a3.989,3.989,0,0,1-1.1.032,1.816,1.816,0,0,0,.2-.032c2.131-.425,3.686-3.23,5.674-4.052,2.024-.836,4.8.17,6.639-1.038,1.858-1.221,2.474-4.462,4.107-6.019s4.552-1.692,5.929-3.552.979-5.138,2.053-7.246c1.066-2.089,3.77-3.339,4.506-5.636.723-2.257-.635-5.187-.261-7.608.364-2.354,2.526-4.579,2.526-7.051s-2.163-4.7-2.526-7.051c-.374-2.421.984-5.349.261-7.608-.736-2.3-3.44-3.547-4.5-5.636-1.074-2.108-.685-5.393-2.055-7.246s-4.291-1.99-5.929-3.552-2.249-4.8-4.1-6.019-4.617-.2-6.641-1.038c-1.99-.821-3.545-3.627-5.68-4.051-.067-.013-.137-.025-.2-.032a3.989,3.989,0,0,1,1.1.032c2.421.425,4.191,3.23,6.448,4.052,2.3.836,5.456-.17,7.547,1.038,2.108,1.221,2.808,4.462,4.663,6.019s5.174,1.692,6.738,3.552,1.114,5.138,2.335,7.246c1.208,2.089,4.281,3.339,5.117,5.636.824,2.259-.719,5.187-.294,7.608.412,2.354,2.871,4.579,2.871,7.051s-2.459,4.7-2.871,7.051C319.426,51.73,320.968,54.66,320.145,56.917Z" transform="translate(-236.985 -0.001)" fill="#c71e54"/>
          <path id="Path_129" data-name="Path 129" d="M165.847,78.234a32.685,32.685,0,0,1-32.686,32.686q-1.6,0-3.15-.151a32.686,32.686,0,0,1,0-65.067q1.557-.151,3.152-.151a32.684,32.684,0,0,1,32.684,32.683Z" transform="translate(-90.296 -35.977)" fill="#eef0f5"/>
          <path id="Path_130" data-name="Path 130" d="M276.836,78.234a32.684,32.684,0,0,1-32.688,32.686q-1.6,0-3.148-.151A32.686,32.686,0,0,0,241,45.7q1.557-.151,3.152-.151A32.684,32.684,0,0,1,276.836,78.234Z" transform="translate(-201.284 -35.977)" fill="#dae1ea"/>
        </g>
      </g>
      <g id="Group_74" data-name="Group 74" transform="translate(34.757 26.138)">
        <path id="Path_131" data-name="Path 131" d="M205.8,201.7a4.376,4.376,0,0,1,4.376,4.376,2.788,2.788,0,0,1-2.788,2.788l-13.928,2.1-13.928-2.1a2.788,2.788,0,0,1-2.788-2.788,4.376,4.376,0,0,1,4.376-4.376l12.34-2.1Z" transform="translate(-174.359 -183.787)" fill="#8b153b"/>
        <path id="Path_132" data-name="Path 132" d="M200.8,243.684H168.172a2.788,2.788,0,0,0-2.788,2.788,4.376,4.376,0,0,0,4.376,4.376h29.456a4.376,4.376,0,0,0,4.376-4.376,2.788,2.788,0,0,0-2.788-2.788Z" transform="translate(-165.384 -218.61)" fill="#f79e60"/>
        <path id="Path_133" data-name="Path 133" d="M181.123,167.608a4.376,4.376,0,0,0-4.376,4.376,2.788,2.788,0,0,0,2.788,2.788h2.181a3.582,3.582,0,0,1,3.582,3.582,3.582,3.582,0,0,0,7.164,0,3.582,3.582,0,0,1,3.582-3.582H207.39a2.788,2.788,0,0,0,2.788-2.788,4.376,4.376,0,0,0-4.376-4.376l-12.34-2.1Z" transform="translate(-174.359 -156.862)" fill="#fbdf63"/>
        <path id="Path_134" data-name="Path 134" d="M199.67,135.119a3.922,3.922,0,0,0,3.922-3.922,6.824,6.824,0,0,0-6.824-6.824h-24.56a6.824,6.824,0,0,0-6.824,6.824,3.922,3.922,0,0,0,3.922,3.922Z" transform="translate(-165.384 -124.373)" fill="#f79e60"/>
      </g>
    </g>
  </g>
</svg>
